<svg width="424" height="359" viewBox="0 0 424 359" fill="none" xmlns="http://www.w3.org/2000/svg">
<path d="M42.124 132L205.248 279.5H0L42.124 132Z" fill="#D4D4D4"/>
<path d="M42.124 132L109 188L53 169L21 205L42.124 132Z" fill="#F5F5F5"/>
<path d="M128 66L285.645 276.25H48.3545L128 66Z" fill="#D4D4D4"/>
<path d="M127 63L159 100L205 160L148 125L139 168L127 138L88 171L127 63Z" fill="#F5F5F5"/>
<path d="M328 138L352.727 279.5H155.273L328 138Z" fill="#D4D4D4"/>
<path d="M328 138L340 201L315 171L272.5 182L328 138Z" fill="#F5F5F5"/>
<path d="M232 0L300.454 279.5H103L232 0Z" fill="#D4D4D4"/>
<path d="M232 0L257.527 104L232 77L215 104V70L181 110L232 0Z" fill="#F5F5F5"/>
<path d="M371.304 157L424 280H272L371.304 157Z" fill="#D4D4D4"/>
<path d="M371.304 157L391 202.5L371.304 177L338.5 198L371.304 157Z" fill="#F5F5F5"/>
<path d="M316 186L307.441 263H223L316 186Z" fill="#E5E5E5"/>
<path d="M240 118L285 263H223V176L240 118Z" fill="#E5E5E5"/>
<path d="M354.598 198L391 263H286L354.598 198Z" fill="#E5E5E5"/>
<path d="M51 187L74 222L188 265L43 260L51 187Z" fill="#E5E5E5"/>
<path d="M59.9062 338.469C57.8229 340.24 55.5 341.604 52.9375 342.562C50.375 343.5 47.7083 343.969 44.9375 343.969C42.8125 343.969 40.7604 343.688 38.7812 343.125C36.8229 342.583 34.9896 341.812 33.2812 340.812C31.5729 339.792 30.0104 338.583 28.5938 337.188C27.1771 335.771 25.9688 334.208 24.9688 332.5C23.9688 330.771 23.1875 328.917 22.625 326.938C22.0833 324.958 21.8125 322.906 21.8125 320.781C21.8125 318.656 22.0833 316.615 22.625 314.656C23.1875 312.698 23.9688 310.865 24.9688 309.156C25.9688 307.427 27.1771 305.865 28.5938 304.469C30.0104 303.052 31.5729 301.844 33.2812 300.844C34.9896 299.844 36.8229 299.073 38.7812 298.531C40.7604 297.969 42.8125 297.688 44.9375 297.688C47.7083 297.688 50.375 298.167 52.9375 299.125C55.5 300.062 57.8229 301.417 59.9062 303.188L55.2188 311C53.8646 309.625 52.3021 308.552 50.5312 307.781C48.7604 306.99 46.8958 306.594 44.9375 306.594C42.9792 306.594 41.1354 306.969 39.4062 307.719C37.6979 308.469 36.1979 309.49 34.9062 310.781C33.6146 312.052 32.5938 313.552 31.8438 315.281C31.0938 316.99 30.7188 318.823 30.7188 320.781C30.7188 322.76 31.0938 324.615 31.8438 326.344C32.5938 328.073 33.6146 329.583 34.9062 330.875C36.1979 332.167 37.6979 333.188 39.4062 333.938C41.1354 334.688 42.9792 335.062 44.9375 335.062C46.0625 335.062 47.1562 334.927 48.2188 334.656C49.2812 334.385 50.2917 334.01 51.25 333.531V320.781H59.9062V338.469ZM98.25 325.969C98.25 328.469 97.8021 330.802 96.9062 332.969C96.0104 335.115 94.7917 336.979 93.25 338.562C91.7083 340.125 89.8958 341.365 87.8125 342.281C85.75 343.177 83.5312 343.625 81.1562 343.625C78.8021 343.625 76.5833 343.177 74.5 342.281C72.4375 341.365 70.625 340.125 69.0625 338.562C67.5208 336.979 66.3021 335.115 65.4062 332.969C64.5104 330.802 64.0625 328.469 64.0625 325.969C64.0625 323.427 64.5104 321.073 65.4062 318.906C66.3021 316.74 67.5208 314.875 69.0625 313.312C70.625 311.729 72.4375 310.49 74.5 309.594C76.5833 308.698 78.8021 308.25 81.1562 308.25C83.5312 308.25 85.75 308.677 87.8125 309.531C89.8958 310.365 91.7083 311.562 93.25 313.125C94.7917 314.667 96.0104 316.531 96.9062 318.719C97.8021 320.885 98.25 323.302 98.25 325.969ZM89.6562 325.969C89.6562 324.594 89.4271 323.354 88.9688 322.25C88.5312 321.125 87.9271 320.167 87.1562 319.375C86.3854 318.562 85.4792 317.948 84.4375 317.531C83.4167 317.094 82.3229 316.875 81.1562 316.875C79.9896 316.875 78.8854 317.094 77.8438 317.531C76.8229 317.948 75.9271 318.562 75.1562 319.375C74.4062 320.167 73.8125 321.125 73.375 322.25C72.9375 323.354 72.7188 324.594 72.7188 325.969C72.7188 327.26 72.9375 328.458 73.375 329.562C73.8125 330.667 74.4062 331.625 75.1562 332.438C75.9271 333.25 76.8229 333.896 77.8438 334.375C78.8854 334.833 79.9896 335.062 81.1562 335.062C82.3229 335.062 83.4167 334.844 84.4375 334.406C85.4792 333.969 86.3854 333.354 87.1562 332.562C87.9271 331.771 88.5312 330.812 88.9688 329.688C89.4271 328.562 89.6562 327.323 89.6562 325.969ZM135.375 343H133.312L130 338.406C129.188 339.135 128.323 339.823 127.406 340.469C126.51 341.094 125.562 341.646 124.562 342.125C123.562 342.583 122.531 342.948 121.469 343.219C120.427 343.49 119.365 343.625 118.281 343.625C115.927 343.625 113.708 343.229 111.625 342.438C109.562 341.646 107.75 340.5 106.188 339C104.646 337.479 103.427 335.625 102.531 333.438C101.635 331.25 101.188 328.76 101.188 325.969C101.188 323.365 101.635 320.979 102.531 318.812C103.427 316.625 104.646 314.75 106.188 313.188C107.75 311.625 109.562 310.417 111.625 309.562C113.708 308.688 115.927 308.25 118.281 308.25C119.365 308.25 120.438 308.385 121.5 308.656C122.562 308.927 123.594 309.302 124.594 309.781C125.594 310.26 126.542 310.823 127.438 311.469C128.354 312.115 129.208 312.812 130 313.562L133.312 309.594H135.375V343ZM126.781 325.969C126.781 324.802 126.552 323.677 126.094 322.594C125.656 321.49 125.052 320.521 124.281 319.688C123.51 318.833 122.604 318.156 121.562 317.656C120.542 317.135 119.448 316.875 118.281 316.875C117.115 316.875 116.01 317.073 114.969 317.469C113.948 317.865 113.052 318.448 112.281 319.219C111.531 319.99 110.938 320.948 110.5 322.094C110.062 323.219 109.844 324.51 109.844 325.969C109.844 327.427 110.062 328.729 110.5 329.875C110.938 331 111.531 331.948 112.281 332.719C113.052 333.49 113.948 334.073 114.969 334.469C116.01 334.865 117.115 335.062 118.281 335.062C119.448 335.062 120.542 334.812 121.562 334.312C122.604 333.792 123.51 333.115 124.281 332.281C125.052 331.427 125.656 330.458 126.094 329.375C126.552 328.271 126.781 327.135 126.781 325.969ZM150.5 343H141.906V296.219H150.5V343ZM211.656 338.406C209.573 340.198 207.24 341.573 204.656 342.531C202.073 343.49 199.396 343.969 196.625 343.969C194.5 343.969 192.448 343.688 190.469 343.125C188.51 342.583 186.667 341.812 184.938 340.812C183.229 339.792 181.667 338.573 180.25 337.156C178.833 335.74 177.615 334.177 176.594 332.469C175.594 330.74 174.812 328.896 174.25 326.938C173.708 324.958 173.438 322.906 173.438 320.781C173.438 318.656 173.708 316.604 174.25 314.625C174.812 312.646 175.594 310.802 176.594 309.094C177.615 307.365 178.833 305.792 180.25 304.375C181.667 302.958 183.229 301.75 184.938 300.75C186.667 299.729 188.51 298.948 190.469 298.406C192.448 297.844 194.5 297.562 196.625 297.562C199.396 297.562 202.073 298.042 204.656 299C207.24 299.938 209.573 301.312 211.656 303.125L206.906 310.938C205.594 309.521 204.042 308.438 202.25 307.688C200.458 306.917 198.583 306.531 196.625 306.531C194.646 306.531 192.792 306.906 191.062 307.656C189.333 308.406 187.823 309.427 186.531 310.719C185.24 311.99 184.219 313.5 183.469 315.25C182.719 316.979 182.344 318.823 182.344 320.781C182.344 322.74 182.719 324.583 183.469 326.312C184.219 328.021 185.24 329.521 186.531 330.812C187.823 332.104 189.333 333.125 191.062 333.875C192.792 334.625 194.646 335 196.625 335C198.583 335 200.458 334.625 202.25 333.875C204.042 333.104 205.594 332.01 206.906 330.594L211.656 338.406ZM224.562 343H215.969V296.219H224.562V343ZM241.156 300.438C241.156 301.229 241 301.969 240.688 302.656C240.396 303.344 239.99 303.948 239.469 304.469C238.948 304.969 238.333 305.375 237.625 305.688C236.938 305.979 236.198 306.125 235.406 306.125C234.615 306.125 233.865 305.979 233.156 305.688C232.469 305.375 231.865 304.969 231.344 304.469C230.844 303.948 230.438 303.344 230.125 302.656C229.833 301.969 229.688 301.229 229.688 300.438C229.688 299.667 229.833 298.938 230.125 298.25C230.438 297.542 230.844 296.938 231.344 296.438C231.865 295.917 232.469 295.51 233.156 295.219C233.865 294.906 234.615 294.75 235.406 294.75C236.198 294.75 236.938 294.906 237.625 295.219C238.333 295.51 238.948 295.917 239.469 296.438C239.99 296.938 240.396 297.542 240.688 298.25C241 298.938 241.156 299.667 241.156 300.438ZM239.688 343H231.094V309.531H239.688V343ZM288.781 343H280.281V321.75C280.281 321.167 280.167 320.615 279.938 320.094C279.729 319.573 279.427 319.115 279.031 318.719C278.635 318.323 278.177 318.021 277.656 317.812C277.135 317.583 276.583 317.469 276 317.469C275.417 317.469 274.865 317.583 274.344 317.812C273.844 318.021 273.396 318.323 273 318.719C272.625 319.115 272.323 319.573 272.094 320.094C271.885 320.615 271.781 321.167 271.781 321.75V343H263.25V321.75C263.25 321.167 263.135 320.615 262.906 320.094C262.698 319.573 262.396 319.115 262 318.719C261.604 318.323 261.146 318.021 260.625 317.812C260.104 317.583 259.552 317.469 258.969 317.469C258.385 317.469 257.833 317.583 257.312 317.812C256.812 318.021 256.365 318.323 255.969 318.719C255.594 319.115 255.292 319.573 255.062 320.094C254.854 320.615 254.75 321.167 254.75 321.75V343H246.219V309.531H248.281L250.594 312.094C251.781 311.094 253.083 310.323 254.5 309.781C255.938 309.219 257.427 308.938 258.969 308.938C260.531 308.938 262.052 309.229 263.531 309.812C265.031 310.396 266.344 311.406 267.469 312.844C267.99 312.135 268.583 311.531 269.25 311.031C269.917 310.531 270.615 310.125 271.344 309.812C272.094 309.5 272.865 309.281 273.656 309.156C274.448 309.01 275.229 308.938 276 308.938C277.771 308.938 279.427 309.271 280.969 309.938C282.531 310.604 283.885 311.521 285.031 312.688C286.198 313.833 287.115 315.188 287.781 316.75C288.448 318.312 288.781 319.979 288.781 321.75V343ZM328.281 325.969C328.281 328.594 327.833 330.99 326.938 333.156C326.042 335.323 324.823 337.188 323.281 338.75C321.74 340.292 319.927 341.49 317.844 342.344C315.781 343.198 313.562 343.625 311.188 343.625C308.833 343.625 306.615 343.188 304.531 342.312C302.469 341.438 300.656 340.219 299.094 338.656C297.552 337.094 296.333 335.24 295.438 333.094C294.542 330.927 294.094 328.552 294.094 325.969V296.219H302.656V311.844C303.115 311.26 303.667 310.74 304.312 310.281C304.979 309.823 305.688 309.448 306.438 309.156C307.208 308.865 308 308.646 308.812 308.5C309.625 308.333 310.417 308.25 311.188 308.25C313.562 308.25 315.781 308.698 317.844 309.594C319.927 310.469 321.74 311.698 323.281 313.281C324.823 314.865 326.042 316.74 326.938 318.906C327.833 321.052 328.281 323.406 328.281 325.969ZM319.688 325.969C319.688 324.677 319.458 323.479 319 322.375C318.562 321.25 317.958 320.281 317.188 319.469C316.417 318.656 315.51 318.021 314.469 317.562C313.448 317.104 312.354 316.875 311.188 316.875C310.021 316.875 308.917 317.135 307.875 317.656C306.854 318.156 305.958 318.833 305.188 319.688C304.417 320.521 303.812 321.49 303.375 322.594C302.938 323.677 302.719 324.802 302.719 325.969C302.719 327.26 302.938 328.458 303.375 329.562C303.812 330.667 304.417 331.625 305.188 332.438C305.958 333.25 306.854 333.896 307.875 334.375C308.917 334.833 310.021 335.062 311.188 335.062C312.354 335.062 313.448 334.833 314.469 334.375C315.51 333.896 316.417 333.25 317.188 332.438C317.958 331.625 318.562 330.667 319 329.562C319.458 328.458 319.688 327.26 319.688 325.969ZM346.344 334.812C346.677 334.917 347.01 334.99 347.344 335.031C347.677 335.052 348.01 335.062 348.344 335.062C349.177 335.062 349.979 334.948 350.75 334.719C351.521 334.49 352.24 334.167 352.906 333.75C353.594 333.312 354.198 332.792 354.719 332.188C355.26 331.562 355.698 330.875 356.031 330.125L362.281 336.406C361.49 337.531 360.573 338.542 359.531 339.438C358.51 340.333 357.396 341.094 356.188 341.719C355 342.344 353.74 342.812 352.406 343.125C351.094 343.458 349.74 343.625 348.344 343.625C345.99 343.625 343.771 343.188 341.688 342.312C339.625 341.438 337.812 340.219 336.25 338.656C334.708 337.094 333.49 335.24 332.594 333.094C331.698 330.927 331.25 328.552 331.25 325.969C331.25 323.323 331.698 320.906 332.594 318.719C333.49 316.531 334.708 314.667 336.25 313.125C337.812 311.583 339.625 310.385 341.688 309.531C343.771 308.677 345.99 308.25 348.344 308.25C349.74 308.25 351.104 308.417 352.438 308.75C353.771 309.083 355.031 309.562 356.219 310.188C357.427 310.812 358.552 311.583 359.594 312.5C360.635 313.396 361.552 314.406 362.344 315.531L346.344 334.812ZM350.719 317.219C350.323 317.073 349.927 316.979 349.531 316.938C349.156 316.896 348.76 316.875 348.344 316.875C347.177 316.875 346.073 317.094 345.031 317.531C344.01 317.948 343.115 318.552 342.344 319.344C341.594 320.135 341 321.094 340.562 322.219C340.125 323.323 339.906 324.573 339.906 325.969C339.906 326.281 339.917 326.635 339.938 327.031C339.979 327.427 340.031 327.833 340.094 328.25C340.177 328.646 340.271 329.031 340.375 329.406C340.479 329.781 340.615 330.115 340.781 330.406L350.719 317.219ZM375.188 343H366.656V309.531H368.719L371.531 313.5C372.906 312.25 374.469 311.292 376.219 310.625C377.969 309.938 379.781 309.594 381.656 309.594H389.188V318.094H381.656C380.76 318.094 379.917 318.26 379.125 318.594C378.333 318.927 377.646 319.385 377.062 319.969C376.479 320.552 376.021 321.24 375.688 322.031C375.354 322.823 375.188 323.667 375.188 324.562V343Z" fill="#FAFAFA"/>
</svg>
