<svg width="424" height="280" viewBox="0 0 424 280" fill="none" xmlns="http://www.w3.org/2000/svg">
<path d="M42.124 132L205.248 279.5H0L42.124 132Z" fill="#0C4A6E"/>
<path d="M22.0946 203.016L42.3911 132.876L106.631 186.668L53.1606 168.527L52.8466 168.42L52.6263 168.668L22.0946 203.016Z" fill="#E2E8F0" stroke="#0C4A6E"/>
<path d="M128 66L285.645 276.25H48.3545L128 66Z" fill="#0C4A6E"/>
<path d="M158.612 100.316L202.96 158.16L148.262 124.574L147.656 124.202L147.511 124.898L138.85 166.278L127.464 137.814L127.207 137.17L126.677 137.618L89.1061 169.409L127.18 63.9728L158.612 100.316Z" fill="#E2E8F0" stroke="#0C4A6E"/>
<path d="M328 138L352.727 279.5H155.273L328 138Z" fill="#0C4A6E"/>
<path d="M274.662 180.924L327.663 138.905L339.147 199.196L315.384 170.68L315.181 170.437L314.875 170.516L274.662 180.924Z" fill="#E2E8F0" stroke="#0C4A6E"/>
<path d="M232 0L300.454 279.5H103L232 0Z" fill="#0C4A6E"/>
<path d="M231.577 76.7336L215.5 102.267V70V68.6397L214.619 69.6762L183 106.875L231.854 1.50329L256.591 102.282L232.363 76.6565L231.92 76.188L231.577 76.7336Z" fill="#E2E8F0" stroke="#0C4A6E"/>
<path d="M371.304 157L424 280H272L371.304 157Z" fill="#0C4A6E"/>
<path d="M340.786 195.943L371.176 157.961L388.955 199.034L371.7 176.694L371.42 176.332L371.035 176.579L340.786 195.943Z" fill="#E2E8F0" stroke="#0C4A6E"/>
<path d="M316 186L307.441 263H223L316 186Z" fill="#075985"/>
<path d="M240 118L285 263H223V176L240 118Z" fill="#075985"/>
<path d="M354.598 198L391 263H286L354.598 198Z" fill="#075985"/>
<path d="M51 187L74 222L188 265L43 260L51 187Z" fill="#075985"/>
</svg>
