<svg width="424" height="280" viewBox="0 0 424 280" fill="none" xmlns="http://www.w3.org/2000/svg">
<path d="M42.124 132L205.248 279.5H0L42.124 132Z" fill="#4C1D95"/>
<path d="M42.124 132L109 188L53 169L21 205L42.124 132Z" fill="#F5F3FF"/>
<path d="M128 66L285.645 276.25H48.3545L128 66Z" fill="#4C1D95"/>
<path d="M127 63L159 100L205 160L148 125L139 168L127 138L88 171L127 63Z" fill="#F5F3FF"/>
<path d="M328 138L352.727 279.5H155.273L328 138Z" fill="#4C1D95"/>
<path d="M328 138L340 201L315 171L272.5 182L328 138Z" fill="#F5F3FF"/>
<path d="M232 0L300.454 279.5H103L232 0Z" fill="#4C1D95"/>
<path d="M232 0L257.527 104L232 77L215 104V70L181 110L232 0Z" fill="#F5F3FF"/>
<path d="M371.304 157L424 280H272L371.304 157Z" fill="#4C1D95"/>
<path d="M371.304 157L391 202.5L371.304 177L338.5 198L371.304 157Z" fill="#F5F3FF"/>
<path d="M316 186L307.441 263H223L316 186Z" fill="#5B21B6"/>
<path d="M240 118L285 263H223V176L240 118Z" fill="#5B21B6"/>
<path d="M354.598 198L391 263H286L354.598 198Z" fill="#5B21B6"/>
<path d="M51 187L74 222L188 265L43 260L51 187Z" fill="#5B21B6"/>
</svg>
