<svg width="971" height="972" viewBox="0 0 971 972" fill="none" xmlns="http://www.w3.org/2000/svg">
<path d="M96.4494 458.144L469.947 970.086H0L96.4494 458.144Z" fill="#4C1D95"/>
<path d="M96.4494 458.144L249.572 652.509L121.352 586.564L48.0828 711.512L96.4494 458.144Z" fill="#F5F3FF"/>
<path d="M293.076 229.072L654.029 958.806H110.715L293.076 229.072Z" fill="#4C1D95"/>
<path d="M293.076 229.072L654.029 958.806H110.715L293.076 229.072Z" fill="#4C1D95"/>
<path d="M290.786 218.66L364.055 347.079L469.379 555.326L338.869 433.849L318.262 583.093L290.786 478.969L201.49 593.505L290.786 218.66Z" fill="#F5F3FF"/>
<path d="M290.786 218.66L364.055 347.079L469.379 555.326L338.869 433.849L318.262 583.093L290.786 478.969L201.49 593.505L290.786 218.66Z" fill="#F5F3FF"/>
<path d="M751.007 478.969L807.623 970.086H355.521L751.007 478.969Z" fill="#4C1D95"/>
<path d="M751.007 478.969L778.483 697.629L721.241 593.505L623.931 631.684L751.007 478.969Z" fill="#F5F3FF"/>
<path d="M531.2 0L687.936 970.086H235.834L531.2 0Z" fill="#4C1D95"/>
<path d="M531.2 0L687.936 970.086H235.834L531.2 0Z" fill="#4C1D95"/>
<path d="M531.2 0L589.648 360.962L531.2 267.251L492.276 360.962V242.955L414.427 381.787L531.2 0Z" fill="#F5F3FF"/>
<path d="M850.158 544.914L970.814 971.821H622.786L850.158 544.914Z" fill="#4C1D95"/>
<path d="M850.158 544.914L895.255 702.835L850.158 614.33L775.048 687.216L850.158 544.914Z" fill="#F5F3FF"/>
<path d="M723.531 645.567L703.934 912.818H510.593L723.531 645.567Z" fill="#5B21B6"/>
<path d="M549.517 409.553L652.552 912.818H510.593V610.859L549.517 409.553Z" fill="#5B21B6"/>
<path d="M811.907 687.217L895.255 912.818H654.841L811.907 687.217Z" fill="#5B21B6"/>
<path d="M116.772 649.038L169.434 770.516L430.455 919.76L98.4551 902.406L116.772 649.038Z" fill="#5B21B6"/>
<path d="M96.4494 458.144L469.947 970.086H0L96.4494 458.144Z" fill="#4C1D95"/>
<path d="M96.4494 458.144L249.572 652.509L121.352 586.564L48.0828 711.512L96.4494 458.144Z" fill="#F5F3FF"/>
<path d="M293.076 229.072L654.029 958.806H110.715L293.076 229.072Z" fill="#4C1D95"/>
<path d="M293.076 229.072L654.029 958.806H110.715L293.076 229.072Z" fill="#4C1D95"/>
<path d="M290.786 218.66L364.055 347.079L469.379 555.326L338.869 433.849L318.262 583.093L290.786 478.969L201.49 593.505L290.786 218.66Z" fill="#F5F3FF"/>
<path d="M290.786 218.66L364.055 347.079L469.379 555.326L338.869 433.849L318.262 583.093L290.786 478.969L201.49 593.505L290.786 218.66Z" fill="#F5F3FF"/>
<path d="M751.007 478.969L807.623 970.086H355.521L751.007 478.969Z" fill="#4C1D95"/>
<path d="M751.007 478.969L778.483 697.629L721.241 593.505L623.931 631.684L751.007 478.969Z" fill="#F5F3FF"/>
<path d="M531.2 0L687.936 970.086H235.834L531.2 0Z" fill="#4C1D95"/>
<path d="M531.2 0L687.936 970.086H235.834L531.2 0Z" fill="#4C1D95"/>
<path d="M531.2 0L589.648 360.962L531.2 267.251L492.276 360.962V242.955L414.427 381.787L531.2 0Z" fill="#F5F3FF"/>
<path d="M850.158 544.914L970.814 971.821H622.786L850.158 544.914Z" fill="#4C1D95"/>
<path d="M850.158 544.914L895.255 702.835L850.158 614.33L775.048 687.216L850.158 544.914Z" fill="#F5F3FF"/>
<path d="M723.531 645.567L703.934 912.818H510.593L723.531 645.567Z" fill="#5B21B6"/>
<path d="M549.517 409.553L652.552 912.818H510.593V610.859L549.517 409.553Z" fill="#5B21B6"/>
<path d="M811.907 687.217L895.255 912.818H654.841L811.907 687.217Z" fill="#5B21B6"/>
<path d="M116.772 649.038L169.434 770.516L430.455 919.76L98.4551 902.406L116.772 649.038Z" fill="#5B21B6"/>
</svg>
