<svg width="404" height="79" viewBox="0 0 404 79" fill="none" xmlns="http://www.w3.org/2000/svg">
<path d="M56.9062 58.4688C54.8229 60.2396 52.5 61.6042 49.9375 62.5625C47.375 63.5 44.7083 63.9688 41.9375 63.9688C39.8125 63.9688 37.7604 63.6875 35.7812 63.125C33.8229 62.5833 31.9896 61.8125 30.2812 60.8125C28.5729 59.7917 27.0104 58.5833 25.5938 57.1875C24.1771 55.7708 22.9688 54.2083 21.9688 52.5C20.9688 50.7708 20.1875 48.9167 19.625 46.9375C19.0833 44.9583 18.8125 42.9062 18.8125 40.7812C18.8125 38.6562 19.0833 36.6146 19.625 34.6562C20.1875 32.6979 20.9688 30.8646 21.9688 29.1562C22.9688 27.4271 24.1771 25.8646 25.5938 24.4688C27.0104 23.0521 28.5729 21.8438 30.2812 20.8438C31.9896 19.8438 33.8229 19.0729 35.7812 18.5312C37.7604 17.9688 39.8125 17.6875 41.9375 17.6875C44.7083 17.6875 47.375 18.1667 49.9375 19.125C52.5 20.0625 54.8229 21.4167 56.9062 23.1875L52.2188 31C50.8646 29.625 49.3021 28.5521 47.5312 27.7812C45.7604 26.9896 43.8958 26.5938 41.9375 26.5938C39.9792 26.5938 38.1354 26.9688 36.4062 27.7188C34.6979 28.4688 33.1979 29.4896 31.9062 30.7812C30.6146 32.0521 29.5938 33.5521 28.8438 35.2812C28.0938 36.9896 27.7188 38.8229 27.7188 40.7812C27.7188 42.7604 28.0938 44.6146 28.8438 46.3438C29.5938 48.0729 30.6146 49.5833 31.9062 50.875C33.1979 52.1667 34.6979 53.1875 36.4062 53.9375C38.1354 54.6875 39.9792 55.0625 41.9375 55.0625C43.0625 55.0625 44.1562 54.9271 45.2188 54.6562C46.2812 54.3854 47.2917 54.0104 48.25 53.5312V40.7812H56.9062V58.4688ZM95.25 45.9688C95.25 48.4688 94.8021 50.8021 93.9062 52.9688C93.0104 55.1146 91.7917 56.9792 90.25 58.5625C88.7083 60.125 86.8958 61.3646 84.8125 62.2812C82.75 63.1771 80.5312 63.625 78.1562 63.625C75.8021 63.625 73.5833 63.1771 71.5 62.2812C69.4375 61.3646 67.625 60.125 66.0625 58.5625C64.5208 56.9792 63.3021 55.1146 62.4062 52.9688C61.5104 50.8021 61.0625 48.4688 61.0625 45.9688C61.0625 43.4271 61.5104 41.0729 62.4062 38.9062C63.3021 36.7396 64.5208 34.875 66.0625 33.3125C67.625 31.7292 69.4375 30.4896 71.5 29.5938C73.5833 28.6979 75.8021 28.25 78.1562 28.25C80.5312 28.25 82.75 28.6771 84.8125 29.5312C86.8958 30.3646 88.7083 31.5625 90.25 33.125C91.7917 34.6667 93.0104 36.5312 93.9062 38.7188C94.8021 40.8854 95.25 43.3021 95.25 45.9688ZM86.6562 45.9688C86.6562 44.5938 86.4271 43.3542 85.9688 42.25C85.5312 41.125 84.9271 40.1667 84.1562 39.375C83.3854 38.5625 82.4792 37.9479 81.4375 37.5312C80.4167 37.0938 79.3229 36.875 78.1562 36.875C76.9896 36.875 75.8854 37.0938 74.8438 37.5312C73.8229 37.9479 72.9271 38.5625 72.1562 39.375C71.4062 40.1667 70.8125 41.125 70.375 42.25C69.9375 43.3542 69.7188 44.5938 69.7188 45.9688C69.7188 47.2604 69.9375 48.4583 70.375 49.5625C70.8125 50.6667 71.4062 51.625 72.1562 52.4375C72.9271 53.25 73.8229 53.8958 74.8438 54.375C75.8854 54.8333 76.9896 55.0625 78.1562 55.0625C79.3229 55.0625 80.4167 54.8438 81.4375 54.4062C82.4792 53.9688 83.3854 53.3542 84.1562 52.5625C84.9271 51.7708 85.5312 50.8125 85.9688 49.6875C86.4271 48.5625 86.6562 47.3229 86.6562 45.9688ZM132.375 63H130.312L127 58.4062C126.188 59.1354 125.323 59.8229 124.406 60.4688C123.51 61.0938 122.562 61.6458 121.562 62.125C120.562 62.5833 119.531 62.9479 118.469 63.2188C117.427 63.4896 116.365 63.625 115.281 63.625C112.927 63.625 110.708 63.2292 108.625 62.4375C106.562 61.6458 104.75 60.5 103.188 59C101.646 57.4792 100.427 55.625 99.5312 53.4375C98.6354 51.25 98.1875 48.7604 98.1875 45.9688C98.1875 43.3646 98.6354 40.9792 99.5312 38.8125C100.427 36.625 101.646 34.75 103.188 33.1875C104.75 31.625 106.562 30.4167 108.625 29.5625C110.708 28.6875 112.927 28.25 115.281 28.25C116.365 28.25 117.438 28.3854 118.5 28.6562C119.562 28.9271 120.594 29.3021 121.594 29.7812C122.594 30.2604 123.542 30.8229 124.438 31.4688C125.354 32.1146 126.208 32.8125 127 33.5625L130.312 29.5938H132.375V63ZM123.781 45.9688C123.781 44.8021 123.552 43.6771 123.094 42.5938C122.656 41.4896 122.052 40.5208 121.281 39.6875C120.51 38.8333 119.604 38.1562 118.562 37.6562C117.542 37.1354 116.448 36.875 115.281 36.875C114.115 36.875 113.01 37.0729 111.969 37.4688C110.948 37.8646 110.052 38.4479 109.281 39.2188C108.531 39.9896 107.938 40.9479 107.5 42.0938C107.062 43.2188 106.844 44.5104 106.844 45.9688C106.844 47.4271 107.062 48.7292 107.5 49.875C107.938 51 108.531 51.9479 109.281 52.7188C110.052 53.4896 110.948 54.0729 111.969 54.4688C113.01 54.8646 114.115 55.0625 115.281 55.0625C116.448 55.0625 117.542 54.8125 118.562 54.3125C119.604 53.7917 120.51 53.1146 121.281 52.2812C122.052 51.4271 122.656 50.4583 123.094 49.375C123.552 48.2708 123.781 47.1354 123.781 45.9688ZM147.5 63H138.906V16.2188H147.5V63ZM208.656 58.4062C206.573 60.1979 204.24 61.5729 201.656 62.5312C199.073 63.4896 196.396 63.9688 193.625 63.9688C191.5 63.9688 189.448 63.6875 187.469 63.125C185.51 62.5833 183.667 61.8125 181.938 60.8125C180.229 59.7917 178.667 58.5729 177.25 57.1562C175.833 55.7396 174.615 54.1771 173.594 52.4688C172.594 50.7396 171.812 48.8958 171.25 46.9375C170.708 44.9583 170.438 42.9062 170.438 40.7812C170.438 38.6562 170.708 36.6042 171.25 34.625C171.812 32.6458 172.594 30.8021 173.594 29.0938C174.615 27.3646 175.833 25.7917 177.25 24.375C178.667 22.9583 180.229 21.75 181.938 20.75C183.667 19.7292 185.51 18.9479 187.469 18.4062C189.448 17.8438 191.5 17.5625 193.625 17.5625C196.396 17.5625 199.073 18.0417 201.656 19C204.24 19.9375 206.573 21.3125 208.656 23.125L203.906 30.9375C202.594 29.5208 201.042 28.4375 199.25 27.6875C197.458 26.9167 195.583 26.5312 193.625 26.5312C191.646 26.5312 189.792 26.9062 188.062 27.6562C186.333 28.4062 184.823 29.4271 183.531 30.7188C182.24 31.9896 181.219 33.5 180.469 35.25C179.719 36.9792 179.344 38.8229 179.344 40.7812C179.344 42.7396 179.719 44.5833 180.469 46.3125C181.219 48.0208 182.24 49.5208 183.531 50.8125C184.823 52.1042 186.333 53.125 188.062 53.875C189.792 54.625 191.646 55 193.625 55C195.583 55 197.458 54.625 199.25 53.875C201.042 53.1042 202.594 52.0104 203.906 50.5938L208.656 58.4062ZM221.562 63H212.969V16.2188H221.562V63ZM238.156 20.4375C238.156 21.2292 238 21.9688 237.688 22.6562C237.396 23.3438 236.99 23.9479 236.469 24.4688C235.948 24.9688 235.333 25.375 234.625 25.6875C233.938 25.9792 233.198 26.125 232.406 26.125C231.615 26.125 230.865 25.9792 230.156 25.6875C229.469 25.375 228.865 24.9688 228.344 24.4688C227.844 23.9479 227.438 23.3438 227.125 22.6562C226.833 21.9688 226.688 21.2292 226.688 20.4375C226.688 19.6667 226.833 18.9375 227.125 18.25C227.438 17.5417 227.844 16.9375 228.344 16.4375C228.865 15.9167 229.469 15.5104 230.156 15.2188C230.865 14.9062 231.615 14.75 232.406 14.75C233.198 14.75 233.938 14.9062 234.625 15.2188C235.333 15.5104 235.948 15.9167 236.469 16.4375C236.99 16.9375 237.396 17.5417 237.688 18.25C238 18.9375 238.156 19.6667 238.156 20.4375ZM236.688 63H228.094V29.5312H236.688V63ZM285.781 63H277.281V41.75C277.281 41.1667 277.167 40.6146 276.938 40.0938C276.729 39.5729 276.427 39.1146 276.031 38.7188C275.635 38.3229 275.177 38.0208 274.656 37.8125C274.135 37.5833 273.583 37.4688 273 37.4688C272.417 37.4688 271.865 37.5833 271.344 37.8125C270.844 38.0208 270.396 38.3229 270 38.7188C269.625 39.1146 269.323 39.5729 269.094 40.0938C268.885 40.6146 268.781 41.1667 268.781 41.75V63H260.25V41.75C260.25 41.1667 260.135 40.6146 259.906 40.0938C259.698 39.5729 259.396 39.1146 259 38.7188C258.604 38.3229 258.146 38.0208 257.625 37.8125C257.104 37.5833 256.552 37.4688 255.969 37.4688C255.385 37.4688 254.833 37.5833 254.312 37.8125C253.812 38.0208 253.365 38.3229 252.969 38.7188C252.594 39.1146 252.292 39.5729 252.062 40.0938C251.854 40.6146 251.75 41.1667 251.75 41.75V63H243.219V29.5312H245.281L247.594 32.0938C248.781 31.0938 250.083 30.3229 251.5 29.7812C252.938 29.2188 254.427 28.9375 255.969 28.9375C257.531 28.9375 259.052 29.2292 260.531 29.8125C262.031 30.3958 263.344 31.4062 264.469 32.8438C264.99 32.1354 265.583 31.5312 266.25 31.0312C266.917 30.5312 267.615 30.125 268.344 29.8125C269.094 29.5 269.865 29.2812 270.656 29.1562C271.448 29.0104 272.229 28.9375 273 28.9375C274.771 28.9375 276.427 29.2708 277.969 29.9375C279.531 30.6042 280.885 31.5208 282.031 32.6875C283.198 33.8333 284.115 35.1875 284.781 36.75C285.448 38.3125 285.781 39.9792 285.781 41.75V63ZM325.281 45.9688C325.281 48.5938 324.833 50.9896 323.938 53.1562C323.042 55.3229 321.823 57.1875 320.281 58.75C318.74 60.2917 316.927 61.4896 314.844 62.3438C312.781 63.1979 310.562 63.625 308.188 63.625C305.833 63.625 303.615 63.1875 301.531 62.3125C299.469 61.4375 297.656 60.2188 296.094 58.6562C294.552 57.0938 293.333 55.2396 292.438 53.0938C291.542 50.9271 291.094 48.5521 291.094 45.9688V16.2188H299.656V31.8438C300.115 31.2604 300.667 30.7396 301.312 30.2812C301.979 29.8229 302.688 29.4479 303.438 29.1562C304.208 28.8646 305 28.6458 305.812 28.5C306.625 28.3333 307.417 28.25 308.188 28.25C310.562 28.25 312.781 28.6979 314.844 29.5938C316.927 30.4688 318.74 31.6979 320.281 33.2812C321.823 34.8646 323.042 36.7396 323.938 38.9062C324.833 41.0521 325.281 43.4062 325.281 45.9688ZM316.688 45.9688C316.688 44.6771 316.458 43.4792 316 42.375C315.562 41.25 314.958 40.2812 314.188 39.4688C313.417 38.6562 312.51 38.0208 311.469 37.5625C310.448 37.1042 309.354 36.875 308.188 36.875C307.021 36.875 305.917 37.1354 304.875 37.6562C303.854 38.1562 302.958 38.8333 302.188 39.6875C301.417 40.5208 300.812 41.4896 300.375 42.5938C299.938 43.6771 299.719 44.8021 299.719 45.9688C299.719 47.2604 299.938 48.4583 300.375 49.5625C300.812 50.6667 301.417 51.625 302.188 52.4375C302.958 53.25 303.854 53.8958 304.875 54.375C305.917 54.8333 307.021 55.0625 308.188 55.0625C309.354 55.0625 310.448 54.8333 311.469 54.375C312.51 53.8958 313.417 53.25 314.188 52.4375C314.958 51.625 315.562 50.6667 316 49.5625C316.458 48.4583 316.688 47.2604 316.688 45.9688ZM343.344 54.8125C343.677 54.9167 344.01 54.9896 344.344 55.0312C344.677 55.0521 345.01 55.0625 345.344 55.0625C346.177 55.0625 346.979 54.9479 347.75 54.7188C348.521 54.4896 349.24 54.1667 349.906 53.75C350.594 53.3125 351.198 52.7917 351.719 52.1875C352.26 51.5625 352.698 50.875 353.031 50.125L359.281 56.4062C358.49 57.5312 357.573 58.5417 356.531 59.4375C355.51 60.3333 354.396 61.0938 353.188 61.7188C352 62.3438 350.74 62.8125 349.406 63.125C348.094 63.4583 346.74 63.625 345.344 63.625C342.99 63.625 340.771 63.1875 338.688 62.3125C336.625 61.4375 334.812 60.2188 333.25 58.6562C331.708 57.0938 330.49 55.2396 329.594 53.0938C328.698 50.9271 328.25 48.5521 328.25 45.9688C328.25 43.3229 328.698 40.9062 329.594 38.7188C330.49 36.5312 331.708 34.6667 333.25 33.125C334.812 31.5833 336.625 30.3854 338.688 29.5312C340.771 28.6771 342.99 28.25 345.344 28.25C346.74 28.25 348.104 28.4167 349.438 28.75C350.771 29.0833 352.031 29.5625 353.219 30.1875C354.427 30.8125 355.552 31.5833 356.594 32.5C357.635 33.3958 358.552 34.4062 359.344 35.5312L343.344 54.8125ZM347.719 37.2188C347.323 37.0729 346.927 36.9792 346.531 36.9375C346.156 36.8958 345.76 36.875 345.344 36.875C344.177 36.875 343.073 37.0938 342.031 37.5312C341.01 37.9479 340.115 38.5521 339.344 39.3438C338.594 40.1354 338 41.0938 337.562 42.2188C337.125 43.3229 336.906 44.5729 336.906 45.9688C336.906 46.2812 336.917 46.6354 336.938 47.0312C336.979 47.4271 337.031 47.8333 337.094 48.25C337.177 48.6458 337.271 49.0312 337.375 49.4062C337.479 49.7812 337.615 50.1146 337.781 50.4062L347.719 37.2188ZM372.188 63H363.656V29.5312H365.719L368.531 33.5C369.906 32.25 371.469 31.2917 373.219 30.625C374.969 29.9375 376.781 29.5938 378.656 29.5938H386.188V38.0938H378.656C377.76 38.0938 376.917 38.2604 376.125 38.5938C375.333 38.9271 374.646 39.3854 374.062 39.9688C373.479 40.5521 373.021 41.2396 372.688 42.0312C372.354 42.8229 372.188 43.6667 372.188 44.5625V63Z" fill="white"/>
</svg>
